<svg xmlns="http://www.w3.org/2000/svg" width="14" height="44"><path d="M11.354 16.028h-1.021A3.423 3.423 0 0 0 7 13.064a3.423 3.423 0 0 0-3.333 2.964h-1.02A2.118 2.118 0 0 0 .53 18.145v7.715a2.119 2.119 0 0 0 2.116 2.117h8.707a2.119 2.119 0 0 0 2.117-2.117v-7.715a2.118 2.118 0 0 0-2.116-2.117zM7 14.163a2.317 2.317 0 0 1 2.222 1.865H4.778A2.317 2.317 0 0 1 7 14.163zm5.37 11.697a1.018 1.018 0 0 1-1.017 1.017H2.647A1.018 1.018 0 0 1 1.63 25.86v-7.715a1.018 1.018 0 0 1 1.017-1.017h8.707a1.018 1.018 0 0 1 1.016 1.017z"/></svg>