<svg width="35" height="35" aria-hidden="true" class="as-svgicon as-svgicon-shipping as-svgicon-base as-svgicon-shippingbase"><path fill="none" d="M0 0h35v35H0z"/><path d="m27.687 10.547-9-4.852a2.5 2.5 0 0 0-2.373 0l-9 4.852A2.5 2.5 0 0 0 6 12.748v9.471a2.494 2.494 0 0 0 1.313 2.2l9 4.852a2.5 2.5 0 0 0 2.373 0l9-4.852a2.5 2.5 0 0 0 1.314-2.2v-9.471a2.5 2.5 0 0 0-1.313-2.201zm-10.9-3.971a1.5 1.5 0 0 1 1.424 0l9 4.852c.041.022.072.055.11.081l-4.41 2.507-9.628-5.55zm-4.538 2.446 9.651 5.566-4.4 2.5-9.823-5.58c.038-.026.07-.059.111-.081zM7.788 23.539A1.5 1.5 0 0 1 7 22.219v-9.471a1.494 1.494 0 0 1 .069-.436L17 17.957v10.516a1.494 1.494 0 0 1-.212-.082zM28 22.219a1.5 1.5 0 0 1-.788 1.32l-9 4.851a1.481 1.481 0 0 1-.212.082V17.957l9.931-5.646a1.5 1.5 0 0 1 .069.436z"/></svg>