<svg width="35" height="35" aria-hidden="true" class="as-svgicon as-svgicon-return as-svgicon-base as-svgicon-returnbase"><path fill="none" d="M0 0h35v35H0z"/><path fill="none" d="m12.249 9.022-4.461 2.4c-.041.022-.073.055-.111.081l9.823 5.588 4.4-2.5zm15.073 2.485c-.038-.025-.069-.058-.11-.081l-9-4.852a1.5 1.5 0 0 0-1.424 0l-3.5 1.889 9.628 5.55zM10.8 18.5a.5.5 0 0 1-.5.5H7v3.219a1.5 1.5 0 0 0 .788 1.32l9 4.852a1.494 1.494 0 0 0 .212.082V17.957l-9.931-5.645a1.494 1.494 0 0 0-.069.436V18h3.3a.5.5 0 0 1 .5.5zm7.2-.543v10.515a1.481 1.481 0 0 0 .212-.082l9-4.851a1.5 1.5 0 0 0 .788-1.32v-9.471a1.5 1.5 0 0 0-.069-.436z"/><path d="m27.687 10.547-9-4.852a2.5 2.5 0 0 0-2.373 0l-9 4.852A2.5 2.5 0 0 0 6 12.748V17h1v-4.252a1.494 1.494 0 0 1 .069-.436L17 17.957v10.516a1.494 1.494 0 0 1-.212-.082l-9-4.852A1.5 1.5 0 0 1 7 22.219V20H6v2.219a2.494 2.494 0 0 0 1.313 2.2l9 4.852a2.5 2.5 0 0 0 2.373 0l9-4.852a2.5 2.5 0 0 0 1.314-2.2v-9.471a2.5 2.5 0 0 0-1.313-2.201zm-10.9-3.971a1.5 1.5 0 0 1 1.424 0l9 4.852c.041.022.072.055.11.081l-4.41 2.507-9.628-5.55zm-9.11 4.932c.038-.026.07-.059.111-.081l4.461-2.4 9.651 5.561-4.4 2.5zM28 22.219a1.5 1.5 0 0 1-.788 1.32l-9 4.851a1.481 1.481 0 0 1-.212.082V17.957l9.931-5.646a1.5 1.5 0 0 1 .069.436z"/><path d="m2.507 18 1.646-1.646a.5.5 0 0 0-.707-.707l-2.5 2.5a.5.5 0 0 0 0 .707l2.5 2.5a.5.5 0 1 0 .707-.707L2.507 19H6v-1zm7.793 1a.5.5 0 0 0 0-1H7v1zM6 18h1v1H6z"/></svg>